# xmcd CD database file
#
# Track frame offsets:
#	150
#	31045
#	62022
#	88694
#	103300
#	116688
#	149077
#	188005
#
# Disc length: 3237 seconds
#
# Revision: 0
# Processed by: cddbd v1.5.2PL0 Copyright (c) Steve Scherf et al.
# Submitted via: CDex 1.70beta2
#
DISCID=6e0ca308
DTITLE=Zach Brock and the Coffee Achievers - Zach Brock and the Coffee Achievers
DYEAR=2002
DGENRE=Jazz
TTITLE0=Now I Know
TTITLE1=Common Ground
TTITLE2=Turn
TTITLE3=Winter Transition
TTITLE4=The Coffee Achiever
TTITLE5=Solitary Candle
TTITLE6=Low Sco
TTITLE7=Mister Shaw
EXTD=YEAR: 2002
EXTT0=
EXTT1=
EXTT2=
EXTT3=
EXTT4=
EXTT5=
EXTT6=
EXTT7=
PLAYORDER=
